<?xml version="1.0" standalone="no"?><!DOCTYPE svg PUBLIC "-//W3C//DTD SVG 1.1//EN" "http://www.w3.org/Graphics/SVG/1.1/DTD/svg11.dtd"><svg t="1559280871804" class="icon" style="" viewBox="0 0 1024 1024" version="1.1" xmlns="http://www.w3.org/2000/svg" p-id="3514" xmlns:xlink="http://www.w3.org/1999/xlink" width="200" height="200"><defs><style type="text/css"></style></defs><path d="M512 0a512 512 0 1 0 0 1024A512 512 0 0 0 512 0z m356.059429 343.771429L439.515429 722.651429a35.474286 35.474286 0 0 1-46.738286 0L229.083429 580.461714a28.16 28.16 0 0 1 0-42.422857 35.474286 35.474286 0 0 1 46.811428 0L416.182857 659.017143l405.065143-357.668572a35.474286 35.474286 0 0 1 46.738286 0c12.873143 11.702857 12.873143 30.72 0 42.422858z" p-id="3515"></path></svg>