<?xml version="1.0" standalone="no"?><!DOCTYPE svg PUBLIC "-//W3C//DTD SVG 1.1//EN" "http://www.w3.org/Graphics/SVG/1.1/DTD/svg11.dtd"><svg t="1558680186374" class="icon" style="" viewBox="0 0 5536 1024" version="1.1" xmlns="http://www.w3.org/2000/svg" p-id="3660" xmlns:xlink="http://www.w3.org/1999/xlink" width="1081.25" height="200"><defs><style type="text/css"></style></defs><path d="M5084.8 204.8V134.4h409.6c22.4 0 35.2 12.8 35.2 32v147.2c0 25.6-6.4 41.6-16 48-9.6 6.4-35.2 12.8-67.2 9.6H5312v-64h57.6c12.8 0 19.2-3.2 19.2-12.8V204.8h-83.2c-6.4 16-48 153.6-48 153.6s-3.2 12.8-32 12.8h-144v-44.8c35.2 0 44.8-16 44.8-16 6.4-19.2 25.6-64 38.4-105.6h-80zM3040 252.8V185.6h64c16 0 25.6-3.2 32-12.8l32-41.6h140.8l-16 28.8h281.6v76.8h-339.2c-19.2 9.6-38.4 16-57.6 16H3040zM3011.2 224v67.2h-124.8c-35.2 0-60.8-3.2-70.4-9.6-9.6-6.4-19.2-12.8-22.4-19.2-3.2-6.4-9.6-19.2-16-35.2-3.2-12.8-19.2-92.8-19.2-92.8h140.8s12.8 67.2 16 73.6c3.2 6.4 6.4 9.6 9.6 12.8 0 3.2 12.8 3.2 28.8 3.2h57.6zM4950.4 835.2c6.4 22.4 22.4 25.6 60.8 25.6h70.4c89.6 3.2 108.8 25.6 108.8 64 3.2 44.8-22.4 64-124.8 64h-195.2v-35.2h176c38.4 0 54.4-3.2 60.8-25.6v-6.4c-6.4-22.4-22.4-25.6-60.8-25.6h-70.4c-89.6-3.2-108.8-25.6-108.8-64-3.2-44.8 22.4-64 124.8-64h188.8v35.2h-169.6c-38.4 0-54.4 3.2-60.8 25.6v6.4zM5292.8 835.2c6.4 22.4 22.4 25.6 60.8 25.6h70.4c89.6 3.2 108.8 25.6 108.8 64 3.2 44.8-22.4 64-124.8 64h-192v-35.2h176c38.4 0 54.4-3.2 60.8-25.6v-6.4c-6.4-22.4-22.4-25.6-60.8-25.6h-70.4c-89.6-3.2-108.8-25.6-108.8-64-3.2-44.8 22.4-64 124.8-64h188.8v35.2h-169.6c-38.4 0-54.4 3.2-60.8 25.6v6.4zM3900.8 464v192h390.4c35.2 0 60.8-3.2 70.4-9.6 9.6-6.4 16-19.2 16-44.8v-137.6h-476.8z m339.2 108.8c0 9.6-6.4 16-25.6 16h-176v-57.6h201.6v41.6z m339.2-345.6V153.6h-358.4v-19.2h-153.6v22.4h-371.2v73.6h99.2l35.2 48H3712v406.4h150.4V339.2h99.2v28.8c0 6.4-6.4 12.8-19.2 12.8h-51.2v64h131.2c35.2 0 54.4-3.2 60.8-9.6 9.6-6.4 12.8-22.4 12.8-51.2v-41.6h80v54.4c0 22.4 3.2 35.2 9.6 38.4 6.4 6.4 25.6 6.4 57.6 6.4h137.6v-64h-54.4c-12.8 0-19.2-3.2-19.2-9.6v-25.6h102.4v256c3.2 9.6-6.4 12.8-22.4 12.8h-16v67.2h80c25.6 0 44.8 0 54.4-3.2 12.8 0 22.4-3.2 25.6-9.6 12.8-6.4 16-25.6 16-54.4V272h-108.8L4480 224h99.2z m-300.8 44.8h-268.8L3968 227.2h358.4l-48 44.8zM5203.2 556.8l121.6 32c25.6 6.4 54.4 6.4 86.4 6.4h118.4v83.2h-182.4c-32 0-76.8-6.4-86.4-9.6l-169.6-44.8-169.6 44.8c-9.6 3.2-54.4 9.6-86.4 9.6h-182.4v-83.2h118.4c35.2 0 64-3.2 86.4-6.4l118.4-32c28.8-9.6 35.2-22.4 35.2-35.2v-38.4h156.8v38.4c3.2 12.8 16 28.8 35.2 35.2zM4652.8 150.4h252.8c9.6 0 16-3.2 12.8-9.6v-6.4h128v41.6c0 16-3.2 25.6-12.8 28.8-6.4 3.2-25.6 6.4-54.4 6.4h-182.4v89.6c0 6.4 3.2 9.6 16 9.6h80c12.8 0 16-3.2 16-12.8V249.6h134.4V320c0 22.4-6.4 38.4-16 44.8-9.6 6.4-32 12.8-64 12.8h-220.8c-38.4 0-64-3.2-73.6-9.6-12.8-6.4-16-22.4-16-44.8V150.4z" p-id="3661" fill="#E22B38"></path><path d="M4656 569.6v-172.8h873.6v166.4h-144v-99.2h-588.8v105.6zM3628.8 678.4v-57.6c-25.6 0-35.2-3.2-44.8-25.6-19.2-41.6-25.6-121.6-41.6-179.2 0 0-6.4-38.4-54.4-38.4H3046.4v86.4h297.6c25.6 0 32 6.4 38.4 22.4l32 147.2s12.8 41.6 60.8 41.6c-3.2 3.2 153.6 3.2 153.6 3.2zM3040 348.8h534.4V272H3040zM3014.4 492.8l-54.4 128c-6.4 12.8-9.6 22.4-12.8 28.8-3.2 6.4-9.6 12.8-22.4 16-9.6 6.4-38.4 9.6-83.2 9.6h-83.2v-64h25.6c9.6 0 16 0 22.4-3.2 6.4-3.2 12.8-9.6 19.2-19.2l41.6-99.2h147.2zM3014.4 400v67.2h-124.8c-35.2 0-60.8-3.2-70.4-9.6-9.6-6.4-19.2-12.8-22.4-19.2-3.2-6.4-9.6-19.2-16-35.2-3.2-12.8-19.2-92.8-19.2-92.8h140.8s12.8 67.2 16 73.6c3.2 6.4 6.4 9.6 9.6 12.8 3.2 3.2 16 3.2 32 3.2h54.4zM1782.4 678.4v-57.6c44.8 0 51.2-35.2 51.2-35.2 12.8-67.2 67.2-345.6 67.2-345.6 3.2-19.2 9.6-64 86.4-64H2240V134.4h166.4v44.8H2656v99.2H2128c-32 0-48 9.6-54.4 41.6-3.2 9.6-64 336-64 336s-6.4 25.6-41.6 25.6c-3.2-3.2-185.6-3.2-185.6-3.2zM1779.2 876.8c0-51.2 22.4-108.8 163.2-108.8H2112v44.8h-163.2c-60.8 0-83.2 22.4-83.2 64s22.4 64 83.2 64h86.4v-38.4h-102.4v-44.8H2112v128h-169.6c-137.6 0-163.2-57.6-163.2-108.8zM2323.2 828.8L2275.2 896h80l28.8 44.8h-140.8l-32 44.8h-83.2l150.4-214.4H2368l150.4 214.4h-89.6zM2502.4 876.8c0-51.2 22.4-108.8 163.2-108.8H2816v44.8h-147.2c-60.8 0-83.2 22.4-83.2 64s22.4 64 83.2 64H2816v44.8h-153.6c-137.6 0-160-57.6-160-108.8zM4627.2 953.6h208V992h-288v-224h288v38.4h-208v54.4h208v38.4h-208zM3292.8 880c16-9.6 25.6-25.6 25.6-48 0-41.6-35.2-64-105.6-64h-227.2v224h227.2c70.4 0 105.6-22.4 105.6-64 0-19.2-6.4-35.2-25.6-48z m-128 76.8H3072v-57.6h92.8c44.8 0 70.4 3.2 70.4 28.8s-25.6 28.8-70.4 28.8z m0-92.8H3072v-57.6h92.8c44.8 0 70.4 3.2 70.4 28.8 0 22.4-25.6 28.8-70.4 28.8zM4256 768l166.4 137.6V768h80v224h-80l-166.4-137.6V992h-80v-224zM3350.4 774.4h80v112c0 19.2 0 32 3.2 35.2 3.2 9.6 12.8 16 25.6 22.4 12.8 6.4 32 6.4 54.4 6.4s41.6-3.2 51.2-6.4c12.8-6.4 19.2-12.8 22.4-19.2 3.2-6.4 3.2-19.2 3.2-38.4v-115.2h80v108.8c0 25.6-3.2 44.8-6.4 54.4-3.2 9.6-12.8 19.2-25.6 28.8-12.8 6.4-25.6 12.8-48 19.2-19.2 3.2-44.8 6.4-76.8 6.4-38.4 0-67.2-3.2-86.4-6.4-19.2-6.4-35.2-9.6-48-19.2-12.8-6.4-19.2-16-22.4-25.6-6.4-12.8-6.4-32-6.4-54.4v-108.8zM3776 835.2c6.4 22.4 22.4 25.6 60.8 25.6h70.4c89.6 3.2 108.8 25.6 108.8 64 3.2 44.8-22.4 64-124.8 64h-195.2v-35.2h176c38.4 0 54.4-3.2 60.8-25.6v-6.4c-6.4-22.4-22.4-25.6-60.8-25.6h-70.4c-89.6-3.2-108.8-25.6-108.8-64-3.2-44.8 22.4-64 124.8-64h188.8v35.2h-169.6c-38.4 0-54.4 3.2-60.8 25.6v6.4zM4054.4 992h80v-224h-80zM1430.4 332.8c-128-176-390.4-246.4-608-246.4C464 80 160 275.2 160 505.6 160 726.4 425.6 928 828.8 928c281.6 0 473.6-121.6 464-249.6-12.8-102.4-140.8-131.2-348.8-128H553.6c-38.4 0-64-19.2-80-44.8L425.6 416H1632c9.6 32 16 64 16 96 0 278.4-371.2 505.6-825.6 505.6C368 1014.4 0 787.2 0 505.6 0 227.2 368 0 822.4 0c323.2 0 598.4 108.8 739.2 278.4 22.4 25.6 54.4 73.6 73.6 131.2l-150.4-44.8c-25.6-6.4-44.8-16-54.4-32z" p-id="3662" fill="#E22B38"></path></svg>