<?xml version="1.0" encoding="UTF-8"?>
<svg width="13px" height="13px" viewBox="0 0 13 13" version="1.1" xmlns="http://www.w3.org/2000/svg" xmlns:xlink="http://www.w3.org/1999/xlink">
    <!-- Generator: Sketch 54.1 (76490) - https://sketchapp.com -->
    <desc>Created with Sketch.</desc>
    <g id="监控中心" stroke="none" stroke-width="1" fill="none" fill-rule="evenodd">
        <g id="部分通用样式" transform="translate(-411.000000, -1015.000000)" fill="#84849A">
            <g id="图标/Tip" transform="translate(411.000000, 1015.000000)">
                <path d="M6.5,13 C2.91014913,13 0,10.0898509 0,6.5 C0,2.91014913 2.91014913,0 6.5,0 C10.0898509,0 13,2.91014913 13,6.5 C13,10.0898509 10.0898509,13 6.5,13 Z M6.5945,3.224 C5.9285,3.224 5.4065,3.413 5.0285,3.8 C4.6505,4.178 4.4615,4.691 4.4615,5.348 L5.4065,5.348 C5.4065,4.952 5.4875,4.646 5.6495,4.43 C5.8295,4.169 6.1265,4.043 6.5315,4.043 C6.8555,4.043 7.1165,4.133 7.2965,4.313 C7.4675,4.493 7.5575,4.736 7.5575,5.051 C7.5575,5.285 7.4675,5.501 7.3055,5.708 L7.1525,5.879 C6.5945,6.374 6.2525,6.743 6.1355,6.995 C6.0095,7.229 5.9555,7.517 5.9555,7.85 L5.9555,8.003 L6.9185,8.003 L6.9185,7.85 C6.9185,7.634 6.9635,7.436 7.0625,7.256 C7.1435,7.094 7.2695,6.932 7.4405,6.788 C7.8635,6.419 8.1155,6.185 8.1965,6.086 C8.4215,5.798 8.5385,5.429 8.5385,4.988 C8.5385,4.448 8.3585,4.016 7.9985,3.701 C7.6385,3.377 7.1705,3.224 6.5945,3.224 Z M6.4325,8.489 C6.2525,8.489 6.0905,8.543 5.9645,8.669 C5.8385,8.786 5.7755,8.939 5.7755,9.128 C5.7755,9.308 5.8385,9.461 5.9645,9.587 C6.0905,9.713 6.2525,9.776 6.4325,9.776 C6.6125,9.776 6.7745,9.713 6.9005,9.596 C7.0265,9.47 7.0985,9.317 7.0985,9.128 C7.0985,8.939 7.0355,8.786 6.9095,8.669 C6.7835,8.543 6.6215,8.489 6.4325,8.489 Z" id="ic_help"></path>
            </g>
        </g>
    </g>
</svg>