<?xml version="1.0" standalone="no"?><!DOCTYPE svg PUBLIC "-//W3C//DTD SVG 1.1//EN" "http://www.w3.org/Graphics/SVG/1.1/DTD/svg11.dtd"><svg t="1558592976913" class="icon" style="" viewBox="0 0 1024 1024" version="1.1" xmlns="http://www.w3.org/2000/svg" p-id="3218" xmlns:xlink="http://www.w3.org/1999/xlink" width="24" height="24"><defs><style type="text/css"></style></defs><path d="M707.291429 170.861714a118.637714 118.637714 0 0 1-116.443429 95.597715H441.929143A118.637714 118.637714 0 0 1 325.485714 170.861714H207.433143v746.642286h617.910857V170.861714H707.291429zM696.32 93.622857h206.262857V994.742857H130.194286V93.622857H336.457143C355.986286 55.369143 395.849143 29.257143 441.856 29.257143h148.918857c46.006857 0 85.869714 26.112 105.545143 64.365714z m-254.390857 0a54.272 54.272 0 0 0 0 108.470857h148.918857a54.272 54.272 0 0 0 0-108.470857H441.929143zM355.401143 410.404571l57.856-51.2 317.44 358.619429-57.856 51.2-317.44-358.619429z" p-id="3219"></path></svg>