<?xml version="1.0" standalone="no"?><!DOCTYPE svg PUBLIC "-//W3C//DTD SVG 1.1//EN" "http://www.w3.org/Graphics/SVG/1.1/DTD/svg11.dtd"><svg t="1559271755541" class="icon" style="" viewBox="0 0 1024 1024" version="1.1" xmlns="http://www.w3.org/2000/svg" p-id="3405" xmlns:xlink="http://www.w3.org/1999/xlink" width="200" height="200"><defs><style type="text/css"></style></defs><path d="M512 1024A512 512 0 1 1 512 0a512 512 0 0 1 0 1024z m-27.818667-430.08c5.461333 16.384 16.384 27.306667 32.768 27.306667s27.306667-10.922667 32.768-27.306667l21.845334-300.373333c0-32.768-27.306667-54.613333-54.613334-54.613334-32.768 0-54.613333 27.306667-54.613333 60.074667l21.845333 294.912z m32.768 81.92c-32.768 0-54.613333 21.845333-54.613333 54.613333s21.845333 54.613333 54.613333 54.613334 54.613333-21.845333 54.613334-54.613334-21.845333-54.613333-54.613334-54.613333z" p-id="3406"></path></svg>