<?xml version="1.0" standalone="no"?><!DOCTYPE svg PUBLIC "-//W3C//DTD SVG 1.1//EN" "http://www.w3.org/Graphics/SVG/1.1/DTD/svg11.dtd"><svg t="1560149095520" class="icon" style="" viewBox="0 0 1024 1024" version="1.1" xmlns="http://www.w3.org/2000/svg" p-id="3514" xmlns:xlink="http://www.w3.org/1999/xlink" width="200" height="200"><defs><style type="text/css"></style></defs><path d="M512 0a512 512 0 0 1 512 512 512 512 0 0 1-512 512 512 512 0 0 1-512-512 512 512 0 0 1 512-512z m0 326.217143a31.963429 31.963429 0 0 0-32.036571 31.963428v427.739429a31.963429 31.963429 0 1 0 64 0V358.180571A31.963429 31.963429 0 0 0 512 326.217143z m32.036571-108.397714a31.963429 31.963429 0 1 0-64-0.073143 31.963429 31.963429 0 0 0 64 0z" p-id="3515" fill="#84849A"></path></svg>