<?xml version="1.0" standalone="no"?><!DOCTYPE svg PUBLIC "-//W3C//DTD SVG 1.1//EN" "http://www.w3.org/Graphics/SVG/1.1/DTD/svg11.dtd"><svg t="1557908224730" class="icon" style="" viewBox="0 0 1024 1024" version="1.1" xmlns="http://www.w3.org/2000/svg" p-id="2219" xmlns:xlink="http://www.w3.org/1999/xlink" width="200" height="200"><defs><style type="text/css"></style></defs><path d="M384.12288 434.5856h248.95488c17.65376 0 31.9488-13.63968 31.9488-30.47424v-89.2928c0-16.87552-14.29504-30.5152-31.9488-30.5152H384.12288c-17.65376 0-31.9488 13.63968-31.9488 30.47424v89.2928c0 16.87552 14.29504 30.55616 31.9488 30.55616z m182.80448 134.7584c0 24.86272 20.80768 45.056 46.4896 45.056s46.4896-20.19328 46.4896-45.056c0-24.90368-20.80768-45.056-46.4896-45.056s-46.4896 20.15232-46.4896 45.056z m-219.7504 0c0 24.86272 20.80768 45.056 46.4896 45.056s46.4896-20.19328 46.4896-45.056c0-24.90368-20.80768-45.056-46.4896-45.056s-46.4896 20.15232-46.4896 45.056z m-44.56448 35.4304V302.65344c0-53.49376 50.29888-97.03424 112.14848-97.03424h187.67872c61.8496 0 112.14848 43.54048 112.14848 97.0752v302.08c0 53.49376-50.33984 96.99328-112.14848 96.99328h-187.67872c-61.8496 0-112.14848-43.49952-112.14848-96.99328zM700.90752 860.16H778.24l-105.79968-131.39968c50.95424-22.85568 86.016-69.8368 86.016-123.98592V302.65344c0-76.55424-70.0416-138.81344-156.0576-138.81344h-187.5968c-86.016 0-156.0576 62.2592-156.0576 138.8544v302.08c0 55.9104 37.39648 104.2432 91.09504 126.1568L245.76 860.16h77.33248l68.28032-84.7872h241.2544L700.90752 860.16z" p-id="2220"></path></svg>