<?xml version="1.0" standalone="no"?><!DOCTYPE svg PUBLIC "-//W3C//DTD SVG 1.1//EN" "http://www.w3.org/Graphics/SVG/1.1/DTD/svg11.dtd"><svg t="1557915571364" class="icon" style="" viewBox="0 0 1024 1024" version="1.1" xmlns="http://www.w3.org/2000/svg" p-id="2447" xmlns:xlink="http://www.w3.org/1999/xlink" width="200" height="200"><defs><style type="text/css"></style></defs><path d="M190.784 112h642.368L569.664 495.296a48 48 0 0 0-8.448 27.2v301.056a48 48 0 0 0 96 0V537.408l273.728-398.08c17.28-26.048 21.952-58.368 3.584-85.952A81.408 81.408 0 0 0 865.728 16H160.32C131.52 16 106.944 30.272 91.584 53.376c-17.216 33.536-13.12 64.128 3.2 88.576l274.048 395.52v391.936a48 48 0 1 0 96 0V522.496a48 48 0 0 0-8.512-27.328L190.72 112z" p-id="2448"></path></svg>