<?xml version="1.0" standalone="no"?><!DOCTYPE svg PUBLIC "-//W3C//DTD SVG 1.1//EN" "http://www.w3.org/Graphics/SVG/1.1/DTD/svg11.dtd"><svg t="1558592968493" class="icon" style="" viewBox="0 0 1024 1024" version="1.1" xmlns="http://www.w3.org/2000/svg" p-id="3076" xmlns:xlink="http://www.w3.org/1999/xlink" width="24" height="24"><defs><style type="text/css"></style></defs><path d="M185.890133 354.986667h602.9312V179.131733H668.603733a115.780267 115.780267 0 0 1-108.544 75.502934h-145.408c-49.7664 0-92.16-31.402667-108.544-75.502934H185.890133V354.986667z m484.420267-251.221334h193.877333V983.04H110.523733V103.765333h193.877334A115.780267 115.780267 0 0 1 414.651733 23.210667h145.408C611.669333 23.210667 655.36 57.002667 670.3104 103.765333z m-255.658667-17.749333a52.906667 52.906667 0 1 0 0 105.813333h145.408a52.906667 52.906667 0 0 0 0-105.813333h-145.408z m246.442667 376.149333L424.618667 669.696 316.142933 554.666667l-54.818133 51.677866 158.3104 167.799467L710.8608 518.826667l-49.698133-56.661334z" p-id="3077" fill="#39394d"></path></svg>