<?xml version="1.0" standalone="no"?><!DOCTYPE svg PUBLIC "-//W3C//DTD SVG 1.1//EN" "http://www.w3.org/Graphics/SVG/1.1/DTD/svg11.dtd"><svg t="1557908236945" class="icon" style="" viewBox="0 0 1024 1024" version="1.1" xmlns="http://www.w3.org/2000/svg" p-id="2333" xmlns:xlink="http://www.w3.org/1999/xlink" width="200" height="200"><defs><style type="text/css"></style></defs><path d="M816.9472 792.33024a22.40512 22.40512 0 0 1-30.72 11.4688 136.35584 136.35584 0 0 1-19.6608-12.04224 93.10208 93.10208 0 0 0-40.87808-9.6256c-21.38112 0-41.61536 7.20896-59.1872 20.80768l-3.60448 2.21184a137.6256 137.6256 0 0 1-60.08832 14.04928 137.74848 137.74848 0 0 1-82.3296-27.40224 93.10208 93.10208 0 0 0-40.96-9.66656c-21.38112 0-41.61536 7.20896-59.1872 20.80768l-3.60448 2.21184c-18.92352 9.17504-39.3216 14.04928-60.04736 14.04928-29.98272 0-58.7776-9.8304-82.20672-27.32032a101.90848 101.90848 0 0 0-12.53376-4.95616c-12.12416-4.01408-18.8416-17.6128-15.1552-30.47424 3.72736-12.9024 16.62976-20.15232 28.75392-16.13824 7.04512 2.33472 13.27104 4.79232 19.6608 7.9872l3.2768 2.048c13.9264 10.69056 30.02368 17.32608 47.18592 19.33312l-72.33536-192.79872a64.7168 64.7168 0 0 1 6.10304-77.90592 40.96 40.96 0 0 1 9.87136-7.9872l44.40064-25.6V363.88864c0-23.83872 18.10432-43.13088 40.5504-43.13088h12.16512v-31.86688c0-23.79776 18.14528-43.08992 40.5504-43.13088h211.02592c22.40512 0 40.5504 19.33312 40.5504 43.13088v31.86688h12.20608c22.40512 0 40.5504 19.29216 40.5504 43.13088v101.49888l44.35968 25.6c3.64544 2.048 6.9632 4.79232 9.91232 8.02816 19.2512 21.2992 21.62688 53.69856 6.63552 76.71808l-59.26912 157.77792c18.80064 1.024 37.10976 6.06208 54.59968 14.78656l3.2768 2.048c4.25984 3.2768 9.33888 6.43072 15.36 9.50272a25.06752 25.06752 0 0 1 10.77248 32.48128zM386.4576 320.7168v5.65248l5.3248-5.65248h-5.3248z m-49.9712 143.03232l-2.78528 1.6384v3.2768l2.78528-4.9152z m143.07328 269.5168c10.07616 0 20.0704 1.2288 29.94176 3.4816V419.4304L312.5248 532.80768c-4.5056 4.99712-4.5056 13.27104 1.10592 20.11136l76.14464 202.50624c0.94208 2.62144 1.47456 5.3248 1.59744 8.06912 1.59744-0.6144 3.19488-1.31072 4.79232-2.048a139.14112 139.14112 0 0 1 83.39456-28.13952z m201.1136 7.7824l71.76192-189.97248c4.5056-5.03808 4.5056-13.312 1.31072-17.24416l-198.28736-114.36032v338.00192c14.49984 8.43776 30.59712 12.86144 47.34976 12.9024 13.55776 0 26.78784-3.072 39.5264-9.0112 11.71456-8.68352 24.61696-15.5648 38.2976-20.35712z m-250.4704-390.38976h204.55424V292.6592h-204.55424v58.04032z" p-id="2334"></path></svg>