<?xml version="1.0" standalone="no"?><!DOCTYPE svg PUBLIC "-//W3C//DTD SVG 1.1//EN" "http://www.w3.org/Graphics/SVG/1.1/DTD/svg11.dtd"><svg t="1559561406710" class="icon" style="" viewBox="0 0 1024 1024" version="1.1" xmlns="http://www.w3.org/2000/svg" p-id="5254" xmlns:xlink="http://www.w3.org/1999/xlink" width="32" height="32"><defs><style type="text/css"></style></defs><path d="M804.305455 732.16V246.970182H231.563636V732.16H804.305455z m0 46.545455H231.563636v129.256727a23.272727 23.272727 0 0 0 23.272728 23.272727H781.032727a23.272727 23.272727 0 0 0 23.272728-23.272727v-129.210182z m0-578.327273V116.363636a23.272727 23.272727 0 0 0-23.272728-23.272727H254.836364a23.272727 23.272727 0 0 0-23.272728 23.272727v84.014546H804.305455zM254.836364 46.545455H781.032727a69.818182 69.818182 0 0 1 69.818182 69.818181v791.598546a69.818182 69.818182 0 0 1-69.818182 69.818182H254.836364a69.818182 69.818182 0 0 1-69.818182-69.818182V116.363636a69.818182 69.818182 0 0 1 69.818182-69.818181z" p-id="5255" fill="#606266"></path><path d="M517.957818 853.690182m-46.545454 0a46.545455 46.545455 0 1 0 93.090909 0 46.545455 46.545455 0 1 0-93.090909 0Z" p-id="5256" fill="#606266"></path></svg>