<?xml version="1.0" standalone="no"?><!DOCTYPE svg PUBLIC "-//W3C//DTD SVG 1.1//EN" "http://www.w3.org/Graphics/SVG/1.1/DTD/svg11.dtd"><svg t="1558507878382" class="icon" style="" viewBox="0 0 1024 1024" version="1.1" xmlns="http://www.w3.org/2000/svg" p-id="3647" xmlns:xlink="http://www.w3.org/1999/xlink" width="200" height="200"><defs><style type="text/css"></style></defs><path d="M831.217778 507.349333a50.261333 50.261333 0 0 0-13.880889-15.004444L512.540444 296.888889c-0.284444-0.284444-0.853333-0.284444-1.137777-0.853333-0.853333-0.284444-1.422222-0.853333-2.261334-1.137778l-45.326222-28.885334c-2.830222-1.706667-5.944889-2.844444-9.344-2.844444h-46.734222c-5.674667 0-11.335111 2.844444-14.449778 7.936l-93.482667 141.084444v0.284445c-11.335111 18.119111-6.513778 41.912889 11.619556 53.532444l150.698667 96.583111-74.510223 74.510223h-75.349333v-88.945778a17.351111 17.351111 0 0 0-17.28-17.28c-9.344 0-17.28 7.921778-17.28 17.28v187.235555a17.351111 17.351111 0 0 0 17.28 17.28c9.358222 0 17.28-7.936 17.28-17.28v-64.014222h88.945778l0.284444-0.284444h0.284445l0.284444-0.284445h0.284445l0.284444-0.284444h0.284445l0.284444-0.284445h0.284444l0.284445-0.284444 0.284444-0.284444 0.284445-0.284445 0.284444-0.284444 0.284445-0.284445 0.853333-0.853333 85.248-84.977778 101.12 65.152a70.243556 70.243556 0 0 0 72.533333 2.275556l149.560889-83.854223c21.248-13.027556 28.330667-39.082667 16.995556-59.207111z m-501.390222-70.812444c-1.706667-1.137778-2.545778-3.683556-1.422223-5.660445l88.391111-132.849777h32.568889l27.477334 17.834666-102.257778 149.575111-44.757333-28.899555z m468.536888 98.019555L648.789333 618.382222c-11.320889 6.513778-25.486222 5.944889-36.821333-1.137778l-208.213333-133.404444 102.542222-149.575111 292.067555 187.235555c2.261333 1.422222 3.683556 3.982222 3.683556 6.798223a8.945778 8.945778 0 0 1-3.697778 6.243555z" p-id="3648"></path></svg>