<?xml version="1.0" standalone="no"?><!DOCTYPE svg PUBLIC "-//W3C//DTD SVG 1.1//EN" "http://www.w3.org/Graphics/SVG/1.1/DTD/svg11.dtd"><svg t="1558492322717" class="icon" style="" viewBox="0 0 1024 1024" version="1.1" xmlns="http://www.w3.org/2000/svg" p-id="2837" xmlns:xlink="http://www.w3.org/1999/xlink" width="200" height="200"><defs><style type="text/css"></style></defs><path d="M512 853.333333c172.728889 0 312.888889-136.817778 312.888889-305.777777S684.728889 241.777778 512 241.777778s-312.888889 136.817778-312.888889 305.777778S339.271111 853.333333 512 853.333333z m0-28.444444c-157.169778 0-284.444444-124.245333-284.444444-277.333333S354.830222 270.222222 512 270.222222s284.444444 124.245333 284.444444 277.333334S669.169778 824.888889 512 824.888889z" p-id="2838"></path><path d="M512 725.333333a71.111111 71.111111 0 1 0 0-142.222222 71.111111 71.111111 0 0 0 0 142.222222z m0-28.444444a42.666667 42.666667 0 1 1 0-85.333333 42.666667 42.666667 0 0 1 0 85.333333zM312.888889 458.666667h142.535111v-28.444445H312.888889zM554.666667 458.666667h142.535111v-28.444445H554.666667z" p-id="2839"></path></svg>