<?xml version="1.0" standalone="no"?><!DOCTYPE svg PUBLIC "-//W3C//DTD SVG 1.1//EN" "http://www.w3.org/Graphics/SVG/1.1/DTD/svg11.dtd"><svg t="1558506858850" class="icon" style="" viewBox="0 0 1024 1024" version="1.1" xmlns="http://www.w3.org/2000/svg" p-id="3184" xmlns:xlink="http://www.w3.org/1999/xlink" width="200" height="200"><defs><style type="text/css"></style></defs><path d="M243.370667 451.413333c-3.128889-89.6 47.402667-173.696 128.540444-214.300444 40.106667-20.48 75.662222-28.842667 143.303111-28.871111v31.317333c-62.648889 0.028444-93.226667 7.224889-128.924444 25.429333-70.257778 35.171556-113.991111 107.946667-111.288889 185.315556l1.237333 35.498667-1.706666 3.484444-38.727112 79.175111c-4.124444 8.462222-4.096 15.744-0.938666 20.494222 3.228444 4.835556 10.055111 7.808 19.626666 7.466667l25.585778-0.881778 2.844445 81.564445c0.711111 20.579556 18.275556 36.807111 39.253333 36.309333l63.601778-11.662222 22.897778 131.697778-31.189334 5.333333-17.479111-100.48-31.032889 5.646222c-2.261333 0.526222-2.261333 0.526222-3.655111 0.654222-1.095111 0.085333-1.095111 0.085333-1.607111 0.099556-38.599111 1.351111-71.096889-28.444444-72.419556-66.503111l-1.763555-50.517333c-17.393778-0.896-32.341333-8.348444-41.088-21.475556-9.770667-14.648889-9.813333-33.536-1.137778-51.342222l37.034667-75.719111-0.967111-27.733334zM583.111111 258.944V227.555556c9.258667 1.479111 16.483556 2.915556 23.808 4.778666 11.676444 2.986667 22.826667 6.940444 35.015111 12.558222 82.545778 37.304889 135.992889 118.570667 135.992889 207.146667v27.420445l39.68 73.486222c9.287111 17.28 9.898667 35.911111 0.64 50.716444-8.277333 13.269333-22.968889 21.148444-40.32 22.613334v49.948444c0 37.617778-31.445333 68.152889-70.087111 68.152889l-1.607111-0.042667c-1.408-0.085333-1.408-0.085333-3.683556-0.526222l-31.217777-4.494222L657.351111 839.111111l-31.374222-4.195555 18.304-130.801778 64 9.315555c20.977778-0.227556 37.973333-16.867556 37.973333-37.205333v-80.625778h25.6c9.585778 0 16.298667-3.157333 19.356445-8.049778 3.000889-4.807111 2.773333-11.989333-1.635556-20.195555L748.088889 490.510222l-1.834667-3.384889v-35.086222c0-76.487111-46.250667-146.816-117.717333-179.114667a167.651556 167.651556 0 0 0-29.610667-10.666666A204.657778 204.657778 0 0 0 583.111111 258.958222z m125.582222 454.542222h-0.042666 0.042666z" p-id="3185"></path><path d="M483.555556 213.816889L516.195556 213.333333 526.222222 838.627556 493.582222 839.111111z" p-id="3186"></path></svg>