<?xml version="1.0" standalone="no"?><!DOCTYPE svg PUBLIC "-//W3C//DTD SVG 1.1//EN" "http://www.w3.org/Graphics/SVG/1.1/DTD/svg11.dtd"><svg t="1559012590598" class="icon" fill="#fff" style="" viewBox="0 0 1024 1024" version="1.1" xmlns="http://www.w3.org/2000/svg" p-id="3243" xmlns:xlink="http://www.w3.org/1999/xlink" width="200" height="200"><defs><style type="text/css"></style></defs><path d="M732.868923 427.795692L842.830769 374.941538l36.627693 37.415385-109.961847 53.011692-36.627692-37.494153z m-73.255385-74.830769l146.51077-149.897846 36.706461 37.415385-146.668307 149.897846-36.627693-37.494154z m-73.412923-74.988308L638.030769 165.572923l36.706462 37.494154-51.830154 112.403692-36.706462-37.494154z m55.611077 465.99877l29.144616 35.446153c20.952615 21.425231 54.902154 21.267692 75.776-0.315076l56.871384-58.525539a56.241231 56.241231 0 0 0-0.315077-77.981538l-29.144615-35.446154c-14.887385-15.123692-36.233846-22.843077-54.980923-16.384l-59.076923-61.124923a105.393231 105.393231 0 0 1 151.709538-0.472616l67.268923 74.279385c41.984 42.929231 42.141538 112.64 0.393847 155.805538l-94.523077 97.752616c-41.747692 43.086769-109.725538 43.323077-151.788308 0.472615l-67.190154-74.279384a112.482462 112.482462 0 0 1-0.472615-155.805539l59.234461 59.864615c-4.883692 18.432 2.914462 42.220308 17.092923 56.713847zM458.200615 347.136c5.986462-18.904615-1.339077-40.408615-15.990153-55.296l-21.819077-35.84a51.672615 51.672615 0 0 0-74.515693 0.236308l-55.768615 57.580307a55.138462 55.138462 0 0 0 0.236308 76.406154l21.819077 35.918769 43.716923 31.035077c13.863385 14.099692-7.089231-9.137231 10.555077-14.178461l57.659076 59.234461c-40.96 42.377846-107.677538 42.535385-148.873846 0.472616l-59.234461-74.043077a110.040615 110.040615 0 0 1-0.472616-152.812308l92.790154-96.098461a103.502769 103.502769 0 0 1 149.031385-0.472616l59.313231 74.043077a110.276923 110.276923 0 0 1 0.393846 152.891077l-58.840616-59.076923z m-140.051692 261.513846L208.187077 661.661538l-36.706462-37.415384 109.961847-53.011692 36.706461 37.494153z m73.255385 65.378462l-146.589539 149.819077-36.627692-37.494154 146.589538-149.819077 36.627693 37.494154z m73.334154 74.830769l-49.23077 112.482461-36.627692-37.494153 49.230769-112.403693 36.627693 37.494154z" p-id="3244"></path></svg>