<?xml version="1.0" encoding="UTF-8"?>
<svg width="11px" height="11px" viewBox="0 0 11 11" version="1.1" xmlns="http://www.w3.org/2000/svg" xmlns:xlink="http://www.w3.org/1999/xlink">
    <!-- Generator: Sketch 54.1 (76490) - https://sketchapp.com -->
    <title>ic_contrast</title>
    <desc>Created with Sketch.</desc>
    <g id="监控中心" stroke="none" stroke-width="1" fill="none" fill-rule="evenodd">
        <g id="运力实时监控-单车-剩余板位警告" transform="translate(-317.000000, -93.000000)" fill="#D92430" fill-rule="nonzero">
            <g id="地图模块/左侧数据" transform="translate(83.000000, 70.000000)">
                <g id="按钮/对比">
                    <g transform="translate(225.000000, 17.000000)">
                        <g id="边距">
                            <g id="ic_contrast" transform="translate(9.000000, 6.000000)">
                                <path d="M10.9914062,5.33180804 L10.996317,5.32689732 L10.9914062,5.32198661 C10.8956473,2.36696429 8.47712054,0 5.5,0 C2.46272321,0 0,2.46272321 0,5.5 C0,8.53727679 2.46272321,11 5.5,11 C8.53727679,11 11,8.53727679 11,5.5 C11,5.44352679 10.9926339,5.38828125 10.9914062,5.33180804 Z M5.84375,3.18705357 L7.77120536,1.25959821 C8.08058036,1.4265625 8.36908482,1.62790179 8.63303571,1.85625 L5.84375,4.64553571 L5.84375,3.18705357 Z M5.84375,2.21473214 L5.84375,0.7046875 C6.27957589,0.735379464 6.69821429,0.825 7.09352679,0.964955357 L5.84375,2.21473214 L5.84375,2.21473214 Z M5.84375,8.04866071 L10.0227679,3.86964286 C10.1590402,4.24776786 10.2535714,4.64553571 10.2904018,5.06049107 L5.84375,9.50714286 L5.84375,8.04866071 Z M9.72321429,3.196875 L5.84375,7.07633929 L5.84375,5.61785714 L9.12165179,2.33995536 C9.35122768,2.60267857 9.55502232,2.88872768 9.72321429,3.196875 Z M0.6875,5.5 C0.6875,2.96238839 2.66283482,0.882700893 5.15625,0.7046875 L5.15625,10.2953125 C2.66283482,10.1172991 0.6875,8.03761161 0.6875,5.5 Z M6.04386161,10.2793527 L10.2805804,6.04263393 C10.0289062,8.26350446 8.26350446,10.0289062 6.04386161,10.2793527 Z" id="Shape"></path>
                            </g>
                        </g>
                    </g>
                </g>
            </g>
        </g>
    </g>
</svg>