<?xml version="1.0" standalone="no"?><!DOCTYPE svg PUBLIC "-//W3C//DTD SVG 1.1//EN" "http://www.w3.org/Graphics/SVG/1.1/DTD/svg11.dtd"><svg t="1558492406153" class="icon" style="" viewBox="0 0 1024 1024" version="1.1" xmlns="http://www.w3.org/2000/svg" p-id="2952" xmlns:xlink="http://www.w3.org/1999/xlink" width="200" height="200"><defs><style type="text/css"></style></defs><path d="M145.564444 435.84l-9.159111-10.88 21.745778-18.346667 9.173333 10.88c198.641778 235.619556 519.552 235.619556 718.208 0l9.173334-10.865777 21.745778 18.346666-9.173334 10.865778c-210.019556 249.088-551.68 249.088-761.713778 0z" p-id="2953"></path><path d="M238.976 387.669333l-9.173333-10.88 21.76-18.332444 9.159111 10.88c147.057778 174.421333 384.341333 174.421333 531.413333 0l9.159111-10.88 21.76 18.346667-9.173333 10.865777c-158.435556 187.904-416.469333 187.904-574.904889 0zM776.362667 525.226667l21.077333-19.086223 76.359111 84.352-21.091555 19.086223zM663.822222 576.056889l25.884445-11.790222 47.160889 103.552-25.884445 11.790222zM526.222222 597.333333h28.444445v113.777778h-28.444445zM383.488 578.730667l26.254222 10.951111-46.535111 111.587555-26.254222-10.951111zM235.178667 506.140444l21.12 19.057778-70.371556 77.994667-21.12-19.057778z" p-id="2954"></path></svg>