<?xml version="1.0" standalone="no"?><!DOCTYPE svg PUBLIC "-//W3C//DTD SVG 1.1//EN" "http://www.w3.org/Graphics/SVG/1.1/DTD/svg11.dtd"><svg t="1557916986116" class="icon" style="" viewBox="0 0 1024 1024" version="1.1" xmlns="http://www.w3.org/2000/svg" p-id="2561" xmlns:xlink="http://www.w3.org/1999/xlink" width="200" height="200"><defs><style type="text/css"></style></defs><path d="M808.740571 137.654857h-174.08a54.857143 54.857143 0 1 1 0-109.714286h306.468572a54.857143 54.857143 0 0 1 54.857143 54.857143v306.614857a54.857143 54.857143 0 0 1-109.714286 0V215.259429L640 461.677714a54.857143 54.857143 0 1 1-77.531429-77.531428l246.345143-246.491429zM215.259429 886.345143h174.08a54.857143 54.857143 0 1 1 0 109.714286h-306.468572a54.857143 54.857143 0 0 1-54.857143-54.857143V634.587429a54.857143 54.857143 0 1 1 109.714286 0v174.153142L384 562.322286a54.857143 54.857143 0 1 1 77.531429 77.531428l-246.345143 246.491429z" p-id="2562"></path></svg>