<?xml version="1.0" standalone="no"?><!DOCTYPE svg PUBLIC "-//W3C//DTD SVG 1.1//EN" "http://www.w3.org/Graphics/SVG/1.1/DTD/svg11.dtd"><svg t="1558508643958" class="icon" style="" viewBox="0 0 1024 1024" version="1.1" xmlns="http://www.w3.org/2000/svg" p-id="4222" xmlns:xlink="http://www.w3.org/1999/xlink" width="200" height="200"><defs><style type="text/css"></style></defs><path d="M511.843556 714.823111a42.666667 42.666667 0 1 0-85.020445-7.424 42.666667 42.666667 0 0 0 85.020445 7.424z m28.330666 2.488889a71.111111 71.111111 0 1 1-141.696-12.416 71.111111 71.111111 0 0 1 141.696 12.416zM464.270222 313.841778L97.308444 281.742222l2.474667-28.330666 398.122667 34.830222-57.130667 310.428444-27.975111-5.148444z" p-id="4223"></path><path d="M454.855111 426.126222l2.474667-28.344889 139.733333 12.231111 47.872 107.192889-41.927111 220.544-63.957333-5.603555 2.474666-28.330667 38.343111 3.356445 35.456-186.524445-37.404444-83.768889-123.064889-10.752z m-30.008889 267.477334l-2.944 28.302222-165.176889-17.137778 2.929778-28.302222 165.191111 17.137778z" p-id="4224"></path><path d="M746.851556 341.333333L640 430.592l16.156444 20.110222 70.044445-58.524444 10.965333 111.928889 127.303111-37.176889-86.229333 105.557333 86.798222 57.486222-111.772444 12.743111 0.412444 105.699556-81.322666-53.859556-13.880889 21.831112L779.335111 796.444444l-0.483555-130.460444 159.800888-18.232889-122.453333-81.109333 120.846222-147.968-177.550222 51.882666z" p-id="4225"></path><path d="M141.127111 398.179556l2.190222-28.359112 184.888889 14.222223-2.190222 28.359111z" p-id="4226"></path></svg>