<?xml version="1.0" standalone="no"?><!DOCTYPE svg PUBLIC "-//W3C//DTD SVG 1.1//EN" "http://www.w3.org/Graphics/SVG/1.1/DTD/svg11.dtd"><svg t="1560070719300" class="icon" style="" viewBox="0 0 1024 1024" version="1.1" xmlns="http://www.w3.org/2000/svg" p-id="3402" xmlns:xlink="http://www.w3.org/1999/xlink" width="200" height="200"><defs><style type="text/css"></style></defs><path d="M138.8544 553.728a38.4 38.4 0 0 1 38.4-38.4h276.1216a38.4 38.4 0 0 1 38.4 38.4v279.2448a38.4 38.4 0 0 1-38.4 38.4H177.2544a38.4 38.4 0 0 1-38.4-38.4v-279.2448z m76.8 240.8448h199.3216v-202.4448H215.6544v202.4448zM138.8544 163.3792a38.4 38.4 0 0 1 38.4-38.4h276.1216a38.4 38.4 0 0 1 38.4 38.4v279.2448a38.4 38.4 0 0 1-38.4 38.4H177.2544a38.4 38.4 0 0 1-38.4-38.4V163.328z m76.8 38.4v202.4448h199.3216V201.728H215.6544zM532.224 163.3792a38.4 38.4 0 0 1 38.4-38.4h276.1216a38.4 38.4 0 0 1 38.4 38.4v279.2448a38.4 38.4 0 0 1-38.4 38.4h-276.1216a38.4 38.4 0 0 1-38.4-38.4V163.328z m76.8 240.8448h199.3216V201.728h-199.3216v202.4448zM532.224 553.728a38.4 38.4 0 0 1 38.4-38.4h276.1216a38.4 38.4 0 0 1 38.4 38.4v279.2448a38.4 38.4 0 0 1-38.4 38.4h-276.1216a38.4 38.4 0 0 1-38.4-38.4v-279.2448z m76.8 240.8448h199.3216v-202.4448h-199.3216v202.4448z" p-id="3403"></path></svg>