<?xml version="1.0" encoding="UTF-8"?>
<svg width="45px" height="45px" viewBox="0 0 45 45" version="1.1" xmlns="http://www.w3.org/2000/svg" xmlns:xlink="http://www.w3.org/1999/xlink">
    <!-- Generator: Sketch 54.1 (76490) - https://sketchapp.com -->
    <title>ic_library_4</title>
    <desc>Created with Sketch.</desc>
    <g id="ic_library_4" stroke="none" stroke-width="1" fill="none" fill-rule="evenodd">
        <path d="M35.3941609,28.1134213 L35.3941609,22.356062 L22.4634124,35.2868105 L28.2207717,35.2868105 L35.3941609,28.1134213 Z M35.3941609,32.356062 L32.4634124,35.2868105 L35.3941609,35.2868105 L35.3941609,32.356062 Z M29.6228206,38.0888029 L19.66142,38.0888029 L19.4467193,38.3035036 L19.2320185,38.0888029 L6.80384673,38.0888029 L6.80384673,6.69649635 L38.1961533,6.69649635 L38.1961533,38.0888029 L29.66142,38.0888029 L29.6421203,38.1081026 L29.6228206,38.0888029 Z M35.3941609,18.1134213 L35.3941609,12.356062 L12.4634124,35.2868105 L18.2207717,35.2868105 L35.3941609,18.1134213 Z M34.0090935,9.49848871 L28.2517342,9.49848871 L9.60583909,28.1443838 L9.60583909,33.9017432 L34.0090935,9.49848871 Z M24.0090935,9.49848871 L18.3555761,9.49848871 L18.3778081,9.52072071 L9.60583909,18.2926897 L9.60583909,23.9017432 L24.0090935,9.49848871 Z M14.1573994,9.49848871 L9.60583909,9.49848871 L9.60583909,14.050049 L14.1573994,9.49848871 Z" fill="#FFFFFF" fill-rule="nonzero"></path>
    </g>
</svg>