<?xml version="1.0" standalone="no"?><!DOCTYPE svg PUBLIC "-//W3C//DTD SVG 1.1//EN" "http://www.w3.org/Graphics/SVG/1.1/DTD/svg11.dtd"><svg t="1558507922434" class="icon" style="" viewBox="0 0 1024 1024" version="1.1" xmlns="http://www.w3.org/2000/svg" p-id="3991" xmlns:xlink="http://www.w3.org/1999/xlink" width="200" height="200"><defs><style type="text/css"></style></defs><path d="M241.777778 369.777778v462.222222c0 12.657778 15.317333 19.015111 24.277333 10.055111l158.165333-158.165333a28.444444 28.444444 0 0 1 20.124445-8.334222H789.333333a14.222222 14.222222 0 0 0 14.222223-14.222223V298.666667a14.222222 14.222222 0 0 0-14.222223-14.222223H327.111111a85.333333 85.333333 0 0 0-85.333333 85.333334z m533.333333-56.888889v334.222222H444.344889a56.888889 56.888889 0 0 0-40.234667 16.668445L270.222222 797.667556V369.777778a56.888889 56.888889 0 0 1 56.888889-56.888889h448z" p-id="3992"></path><path d="M540.444444 583.111111a28.444444 28.444444 0 1 1 0-56.888889 28.444444 28.444444 0 0 1 0 56.888889z m0-199.111111a14.222222 14.222222 0 0 1 14.222223 14.222222v85.333334a14.222222 14.222222 0 0 1-28.444445 0v-85.333334a14.222222 14.222222 0 0 1 14.222222-14.222222z" p-id="3993"></path></svg>