<?xml version="1.0" standalone="no"?><!DOCTYPE svg PUBLIC "-//W3C//DTD SVG 1.1//EN" "http://www.w3.org/Graphics/SVG/1.1/DTD/svg11.dtd"><svg t="1559285473853" class="icon" style="" viewBox="0 0 1024 1024" version="1.1" xmlns="http://www.w3.org/2000/svg" p-id="3957" xmlns:xlink="http://www.w3.org/1999/xlink" width="600" height="600"><defs><style type="text/css"></style></defs><path d="M619.43808 499.0976a110.63296 110.63296 0 1 1-221.26592 0 110.63296 110.63296 0 0 1 221.26592 0z m-53.248 0a57.38496 57.38496 0 1 0-114.76992 0 57.38496 57.38496 0 0 0 114.76992 0z m222.49472-96.09216l28.50816-11.50976 7.3728 29.81888a325.55008 325.55008 0 0 1 0 155.52512l-7.3728 29.9008-28.50816-11.50976a57.344 57.344 0 0 0-56.77056 98.18112l24.1664 18.92352-22.1184 21.21728a324.89472 324.89472 0 0 1-134.67648 77.824l-29.4912 8.6016-4.3008-30.43328a57.30304 57.30304 0 0 0-113.37728 0l-4.3008 30.39232-29.4912-8.51968a324.64896 324.64896 0 0 1-134.67648-77.824l-22.1184-21.2992 24.1664-18.8416a57.344 57.344 0 0 0-56.77056-98.22208l-28.50816 11.4688-7.33184-29.81888a325.4272 325.4272 0 0 1 0-155.56608l7.33184-29.81888 28.50816 11.4688a57.344 57.344 0 0 0 56.77056-98.18112l-24.1664-18.92352 22.1184-21.21728a324.89472 324.89472 0 0 1 134.67648-77.824l29.4912-8.56064 4.3008 30.43328a57.30304 57.30304 0 0 0 113.37728 0l4.3008-30.43328 29.4912 8.56064a324.89472 324.89472 0 0 1 134.67648 77.824l22.1184 21.21728-24.1664 18.92352a57.344 57.344 0 0 0 56.77056 98.22208z m-7.9872 96.09216c0-13.18912-0.94208-26.25536-2.82624-39.19872a110.592 110.592 0 0 1-100.63872-174.16192 271.64672 271.64672 0 0 0-67.87072-39.23968 110.51008 110.51008 0 0 1-201.1136 0 271.64672 271.64672 0 0 0-67.87072 39.23968 110.592 110.592 0 0 1-100.63872 174.16192 271.89248 271.89248 0 0 0 0 78.39744 110.592 110.592 0 0 1 100.63872 174.16192c20.60288 16.26112 43.4176 29.4912 67.87072 39.23968a110.55104 110.55104 0 0 1 201.1136 0 271.60576 271.60576 0 0 0 67.87072-39.23968 110.592 110.592 0 0 1 100.63872-174.16192c1.88416-12.94336 2.8672-26.05056 2.8672-39.19872z" p-id="3958" fill="#BABACE"></path></svg>