<?xml version="1.0" standalone="no"?><!DOCTYPE svg PUBLIC "-//W3C//DTD SVG 1.1//EN" "http://www.w3.org/Graphics/SVG/1.1/DTD/svg11.dtd"><svg t="1558508800550" class="icon" style="" viewBox="0 0 1024 1024" version="1.1" xmlns="http://www.w3.org/2000/svg" p-id="4456" xmlns:xlink="http://www.w3.org/1999/xlink" width="200" height="200"><defs><style type="text/css"></style></defs><path d="M188.401778 327.111111v-28.444444h141.340444v317.738666h-141.340444v-28.444444h112.896V327.111111zM619.676444 327.111111H823.466667v-28.444444H591.217778v419.925333h112.398222v-28.444444h-83.953778z" p-id="4457"></path><path d="M430.976 425.400889h-119.608889v-28.444445h135.125333l64.426667 100.110223v221.525333H450.986667v-28.444444h31.459555V505.429333l-51.484444-80.028444z m-92.216889 264.746667v28.444444H194.986667v-28.444444h143.758222z" p-id="4458"></path><path d="M424.504889 714.780444c0-24.064-19.185778-43.491556-42.752-43.491555-23.552 0-42.737778 19.427556-42.737778 43.491555 0 24.064 19.185778 43.491556 42.737778 43.491556 23.566222 0 42.752-19.427556 42.752-43.491556z m28.444444 0c0 39.68-31.829333 71.936-71.196444 71.936-39.352889 0-71.182222-32.241778-71.182222-71.936 0-39.68 31.829333-71.936 71.182222-71.936 39.367111 0 71.196444 32.241778 71.196444 71.936zM799.217778 714.780444c0-24.064-19.185778-43.491556-42.752-43.491555-23.552 0-42.737778 19.427556-42.737778 43.491555 0 24.064 19.185778 43.491556 42.737778 43.491556 23.566222 0 42.752-19.427556 42.752-43.491556z m28.444444 0c0 39.68-31.829333 71.936-71.196444 71.936-39.352889 0-71.182222-32.241778-71.182222-71.936 0-39.68 31.829333-71.936 71.182222-71.936 39.367111 0 71.196444 32.241778 71.196444 71.936zM807.566222 608.213333v-28.444444h-215.04v28.444444z" p-id="4459"></path></svg>