<?xml version="1.0" standalone="no"?><!DOCTYPE svg PUBLIC "-//W3C//DTD SVG 1.1//EN" "http://www.w3.org/Graphics/SVG/1.1/DTD/svg11.dtd"><svg t="1557907785023" class="icon" style="" viewBox="0 0 1024 1024" version="1.1" xmlns="http://www.w3.org/2000/svg" p-id="1991" xmlns:xlink="http://www.w3.org/1999/xlink" width="200" height="200"><defs><style type="text/css"></style></defs><path d="M503.23456 241.4592l0.94208 0.4096 266.40384 143.44192c18.432 10.56768 18.432 36.98688-0.32768 47.7184l-267.0592 133.44768a34.85696 34.85696 0 0 1-23.10144-0.32768l-266.52672-133.28384a27.32032 27.32032 0 0 1 0.12288-47.63648l266.40384-143.44192c5.7344-2.8672 15.5648-2.8672 23.1424-0.32768z m-12.20608 392.192l255.7952-125.82912c13.5168-5.40672 29.2864 0.4096 34.6112 13.68064 5.40672 13.5168-0.4096 29.2864-13.23008 34.4064l-274.432 137.216h-5.48864l-273.94048-137.0112c-13.312-5.3248-19.08736-21.05344-13.23008-35.51232 7.53664-12.53376 23.10144-18.30912 34.6112-12.57472l255.30368 125.62432z m0 122.88l255.7952-125.82912c13.5168-5.40672 29.2864 0.4096 34.6112 13.68064 5.40672 13.5168-0.4096 29.2864-13.23008 34.4064l-274.432 137.216h-5.48864l-273.94048-137.0112c-13.312-5.3248-19.08736-21.05344-13.23008-35.51232 7.53664-12.53376 23.10144-18.30912 34.6112-12.57472l255.30368 125.62432z m0-461.29152L283.19744 408.7808l207.83104 101.9904 207.83104-101.9904-207.83104-113.54112z" p-id="1992"></path></svg>