<?xml version="1.0" standalone="no"?><!DOCTYPE svg PUBLIC "-//W3C//DTD SVG 1.1//EN" "http://www.w3.org/Graphics/SVG/1.1/DTD/svg11.dtd"><svg t="1557916998773" class="icon" style="" viewBox="0 0 1024 1024" version="1.1" xmlns="http://www.w3.org/2000/svg" p-id="2675" xmlns:xlink="http://www.w3.org/1999/xlink" width="200" height="200"><defs><style type="text/css"></style></defs><path d="M761.490286 402.285714h174.153143a54.857143 54.857143 0 0 1 0 109.714286H629.101714a54.857143 54.857143 0 0 1-54.857143-54.857143V150.601143a54.857143 54.857143 0 0 1 109.714286 0v174.08L930.377143 78.262857a54.857143 54.857143 0 0 1 77.531428 77.604572L761.490286 402.285714z m-471.04 253.659429H116.297143a54.857143 54.857143 0 1 1 0-109.714286h306.468571a54.857143 54.857143 0 0 1 54.857143 54.857143v306.614857a54.857143 54.857143 0 1 1-109.714286 0v-174.08l-246.345142 246.345143a54.857143 54.857143 0 0 1-77.604572-77.531429l246.418286-246.491428z" p-id="2676"></path></svg>