<?xml version="1.0" standalone="no"?><!DOCTYPE svg PUBLIC "-//W3C//DTD SVG 1.1//EN" "http://www.w3.org/Graphics/SVG/1.1/DTD/svg11.dtd"><svg t="1559269676044" class="icon" style="" viewBox="0 0 1024 1024" version="1.1" xmlns="http://www.w3.org/2000/svg" p-id="3296" xmlns:xlink="http://www.w3.org/1999/xlink" width="200" height="200"><defs><style type="text/css"></style></defs><path d="M512 0c282.742154 0 512 229.257846 512 512s-229.257846 512-512 512S0 794.742154 0 512 229.257846 0 512 0z m72.979692 737.083077a66.205538 66.205538 0 1 0-132.411077 0 66.205538 66.205538 0 0 0 132.411077 0z m-99.328-154.466462h66.244923c6.065231 0 11.027692-4.962462 11.027693-11.027692V223.428923a11.067077 11.067077 0 0 0-11.027693-11.027692H485.612308a11.067077 11.067077 0 0 0-11.027693 11.027692v348.081231c0 6.104615 4.962462 11.027692 11.027693 11.027692z" p-id="3297"></path></svg>