<?xml version="1.0" standalone="no"?><!DOCTYPE svg PUBLIC "-//W3C//DTD SVG 1.1//EN" "http://www.w3.org/Graphics/SVG/1.1/DTD/svg11.dtd"><svg t="1558507942863" class="icon" style="" viewBox="0 0 1024 1024" version="1.1" xmlns="http://www.w3.org/2000/svg" p-id="4106" xmlns:xlink="http://www.w3.org/1999/xlink" width="200" height="200"><defs><style type="text/css"></style></defs><path d="M446.72 679.722667h-37.404444v-314.026667h125.895111c61.866667 0 112.014222 45.112889 112.014222 100.764444s-50.161778 100.764444-112.014222 100.764445h-66.417778v-33.678222h66.417778c41.187556 0 74.581333-30.037333 74.581333-67.086223 0-37.063111-33.393778-67.100444-74.581333-67.100444H446.72v280.362667zM747.192889 418.944l-18.816 21.333333 91.349333 80.64 62.833778-90.396444-23.367111-16.227556-44.586667 64.156445z" p-id="4107"></path><path d="M497.777778 184.888889c172.8 0 312.888889 140.088889 312.888889 312.888889h-28.444445c0-157.098667-127.345778-284.444444-284.444444-284.444445v-28.444444z" p-id="4108"></path><path d="M511.744 184.888889a314.453333 314.453333 0 0 0-59.306667 5.617778l5.347556 27.932444A286.008889 286.008889 0 0 1 511.744 213.333333v-28.444444z m-102.855111 17.308444a311.409778 311.409778 0 0 0-54.158222 24.888889l14.293333 24.604445a282.965333 282.965333 0 0 1 49.208889-22.627556l-9.344-26.88z m-91.377778 50.261334a314.695111 314.695111 0 0 0-42.965333 41.272889l21.546666 18.56a286.250667 286.250667 0 0 1 39.096889-37.546667l-17.678222-22.286222z m-69.504 76.899555a311.907556 311.907556 0 0 0-27.178667 53.048889l26.424889 10.481778a283.463111 283.463111 0 0 1 24.718223-48.199111l-23.964445-15.331556z m-40.874667 96.668445A312.988444 312.988444 0 0 0 199.111111 485.077333l28.416 1.137778c0.739556-18.232889 3.185778-36.181333 7.296-53.688889l-27.690667-6.499555z m-6.542222 104.789333c2.076444 19.911111 6.058667 39.452444 11.847111 58.410667l27.207111-8.305778a282.993778 282.993778 0 0 1-10.780444-53.077333l-28.288 2.972444z m28.003556 100.252444a312.732444 312.732444 0 0 0 30.435555 51.242667l22.968889-16.782222a284.288 284.288 0 0 1-27.676444-46.592l-25.742222 12.131555z m60.103111 86.129778c13.952 14.193778 29.226667 27.022222 45.610667 38.328889l16.156444-23.409778a285.980444 285.980444 0 0 1-41.486222-34.858666l-20.280889 19.939555z m83.655111 60.771556a310.826667 310.826667 0 0 0 55.651556 21.361778l7.594666-27.406223a282.382222 282.382222 0 0 1-50.56-19.413333l-12.686222 25.457778z m100.707556 30.321778a315.804444 315.804444 0 0 0 60.16 1.649777l-1.934223-28.373333a287.260444 287.260444 0 0 1-54.755555-1.493333l-3.470222 28.216889z m104.490666-4.551112a310.613333 310.613333 0 0 0 56.832-18.019555l-11.164444-26.168889a282.168889 282.168889 0 0 1-51.626667 16.355556l5.959111 27.832888z m96.810667-38.599111a313.969778 313.969778 0 0 0 47.701333-35.697777l-19.114666-21.048889a285.525333 285.525333 0 0 1-43.377778 32.455111l14.791111 24.291555z m78.506667-67.953777a313.486222 313.486222 0 0 0 33.479111-49.308445l-24.945778-13.653333a285.041778 285.041778 0 0 1-30.435556 44.814222l21.902223 18.147556z m52.352-90.695112a310.755556 310.755556 0 0 0 15.260444-57.628444l-28.060444-4.608a282.311111 282.311111 0 0 1-13.866667 52.352l26.666667 9.884444z m19.370666-103.580444l0.042667-5.034667h-28.444445c0 1.521778 0 3.043556-0.028444 4.565334l28.444444 0.469333z" p-id="4109"></path></svg>