<?xml version="1.0" standalone="no"?><!DOCTYPE svg PUBLIC "-//W3C//DTD SVG 1.1//EN" "http://www.w3.org/Graphics/SVG/1.1/DTD/svg11.dtd"><svg t="1558492465315" class="icon" style="" viewBox="0 0 1024 1024" version="1.1" xmlns="http://www.w3.org/2000/svg" p-id="3067" xmlns:xlink="http://www.w3.org/1999/xlink" width="200" height="200"><defs><style type="text/css"></style></defs><path d="M378.353778 377.116444v-11.178666c0-21.432889 15.217778-36.579556 36.622222-36.579556v28.444445c-5.731556 0-8.177778 2.446222-8.177778 8.135111v11.178666c0 4.451556 6.968889 9.713778 17.450667 8.277334l10.695111-1.479111 4.295111 9.912889c28.088889 64.867556 51.313778 92.046222 76.558222 92.046222 35.413333 0 58.666667-24.803556 87.779556-92.046222l4.295111-9.912889 10.695111 1.479111c10.481778 1.436444 17.450667-3.84 17.450667-8.277334v-11.178666c0-5.688889-2.460444-8.135111-8.192-8.135111v-28.444445c21.418667 0 36.636444 15.146667 36.636444 36.579556v11.178666c0 19.470222-16.967111 35.072-38.656 36.792889-31.715556 70.328889-61.795556 100.408889-110.008889 100.408889-39.182222 0-67.968-31.857778-98.801777-100.408889-21.674667-1.735111-38.641778-17.336889-38.641778-36.792889z" p-id="3068"></path><path d="M627.825778 329.358222v28.444445h-25.287111l-27.633778-27.932445v-20.977778h-43.818667a43.264 43.264 0 0 1-40.903111-29.340444h-7.480889c-8.149333 0-14.791111 6.727111-14.791111 15.118222v35.2l-27.648 27.932445h-25.287111v-28.444445h13.411556l11.064888-11.178666v-23.509334c0-24.035556 19.328-43.562667 43.249778-43.562666h33.564445v14.222222c0 8.391111 6.656 15.118222 14.819555 15.118222h72.263111v37.731556l11.064889 11.178666h13.411556z" p-id="3069"></path><path d="M642.048 343.580444h-28.444444v-78.250666h28.444444zM429.198222 343.580444h-28.444444v-78.250666h28.444444zM642.048 265.329778h-28.444444c0-7.395556-5.376-11.420444-15.658667-8.632889l-22.613333 6.115555 4.992-22.869333c2.318222-10.609778-2.048-16.298667-8.504889-16.298667h-100.835556c-22.542222 0-41.784889 19.000889-41.784889 41.671112h-28.444444c0-38.471111 32.071111-70.115556 70.243555-70.115556h100.821334c19.2 0 33.991111 13.511111 36.977777 32.526222 19.342222 2.261333 33.251556 17.294222 33.251556 37.603556zM516.067556 879.672889c-103.011556 0-188.259556-55.751111-188.259556-128.028445 0-72.291556 85.248-128.028444 188.259556-128.028444 103.025778 0 188.273778 55.751111 188.273777 128.028444 0 72.291556-85.248 128.028444-188.273777 128.028445z m0-28.444445c89.216 0 159.829333-46.165333 159.829333-99.584s-70.613333-99.584-159.829333-99.584S356.266667 698.225778 356.266667 751.644444s70.599111 99.584 159.815111 99.584z" p-id="3070"></path><path d="M663.424 835.484444l-12.16-25.713777c60.103111-28.401778 95.914667-74.055111 95.914667-122.666667 0-81.678222-100.565333-150.428444-226.631111-150.428444S293.916444 605.44 293.916444 687.104c0 47.559111 34.247111 92.302222 92.16 120.860444l-12.572444 25.514667c-66.844444-32.967111-108.032-86.755556-108.032-146.375111 0-100.181333 115.100444-178.872889 255.075556-178.872889 139.975111 0 255.075556 78.691556 255.075555 178.872889 0 60.899556-42.965333 115.669333-112.213333 148.380444zM695.921778 220.416l-3.470222-28.231111 138.183111-16.967111-73.784889 94.236444 71.537778-8.775111 3.470222 28.231111-139.804445 17.166222 73.784889-94.236444zM222.663111 302.762667l6.4-27.719111 97.792 22.584888-63.914667 39.850667 31.786667 7.338667-6.4 27.719111-98.801778-22.812445 63.928889-39.850666z" p-id="3071"></path></svg>