<?xml version="1.0" standalone="no"?><!DOCTYPE svg PUBLIC "-//W3C//DTD SVG 1.1//EN" "http://www.w3.org/Graphics/SVG/1.1/DTD/svg11.dtd"><svg t="1558507898529" class="icon" style="" viewBox="0 0 1024 1024" version="1.1" xmlns="http://www.w3.org/2000/svg" p-id="3761" xmlns:xlink="http://www.w3.org/1999/xlink" width="200" height="200"><defs><style type="text/css"></style></defs><path d="M469.774222 199.111111v-28.444444C555.776 170.666667 625.777778 240.412444 625.777778 326.129778c0 85.745778-70.001778 155.477333-156.003556 155.477333-38.442667 0-77.084444-14.435556-104.903111-39.708444-15.672889-14.222222-35.242667-22.186667-55.310222-22.186667-45.212444 0-82.005333 36.721778-82.005333 81.749333C227.555556 546.474667 264.334222 583.111111 309.560889 583.111111v28.444445C248.647111 611.555556 199.111111 562.204444 199.111111 501.475556c0-60.771556 49.550222-110.193778 110.449778-110.193778 27.320889 0 53.646222 10.680889 74.424889 29.553778 22.513778 20.437333 54.314667 32.327111 85.788444 32.327111 70.314667 0 127.559111-57.031111 127.559111-127.032889C597.333333 256.142222 540.088889 199.111111 469.774222 199.111111zM384 682.666667v71.111111h412.444444v-71.111111H384z m-28.444444-28.444445h469.333333v128H355.555556v-128zM270.222222 654.222222h28.444445v128h-28.444445z" p-id="3762"></path></svg>