<?xml version="1.0" encoding="UTF-8"?>
<svg width="45px" height="45px" viewBox="0 0 45 45" version="1.1" xmlns="http://www.w3.org/2000/svg" xmlns:xlink="http://www.w3.org/1999/xlink">
    <!-- Generator: Sketch 54.1 (76490) - https://sketchapp.com -->
    <title>ic_library_2</title>
    <desc>Created with Sketch.</desc>
    <g id="ic_library_2" stroke="none" stroke-width="1" fill="none" fill-rule="evenodd">
        <path d="M21,24 L7,24 L7,36 L21,36 L21,24 Z M21,21 L21,9 L7,9 L7,21 L21,21 Z M24,24 L24,36 L38,36 L38,24 L24,24 Z M24,21 L38,21 L38,9 L24,9 L24,21 Z M7,39 L4,39 L4,9 L4,6 L41,6 L41,9 L41,39 L38,39 L7,39 Z" fill="#FFFFFF" fill-rule="nonzero"></path>
    </g>
</svg>