<?xml version="1.0" standalone="no"?><!DOCTYPE svg PUBLIC "-//W3C//DTD SVG 1.1//EN" "http://www.w3.org/Graphics/SVG/1.1/DTD/svg11.dtd"><svg t="1560073995732" class="icon" style="" viewBox="0 0 1024 1024" version="1.1" xmlns="http://www.w3.org/2000/svg" p-id="3516" xmlns:xlink="http://www.w3.org/1999/xlink" width="200" height="200"><defs><style type="text/css"></style></defs><path d="M109.714286 65.828571h804.571428a73.142857 73.142857 0 0 1 73.142857 73.142858v804.571428a73.142857 73.142857 0 0 1-73.142857 73.142857H109.714286a73.142857 73.142857 0 0 1-73.142857-73.142857v-804.571428a73.142857 73.142857 0 0 1 73.142857-73.142858z m179.053714 504.173715a36.571429 36.571429 0 1 0-49.956571 53.394285l175.030857 163.913143a36.571429 36.571429 0 0 0 52.516571-2.56l339.968-387.437714a36.571429 36.571429 0 1 0-55.003428-48.274286l-315.026286 359.131429-147.529143-138.166857z" p-id="3517"></path></svg>