<?xml version="1.0" standalone="no"?><!DOCTYPE svg PUBLIC "-//W3C//DTD SVG 1.1//EN" "http://www.w3.org/Graphics/SVG/1.1/DTD/svg11.dtd"><svg t="1558506880214" class="icon" style="" viewBox="0 0 1024 1024" version="1.1" xmlns="http://www.w3.org/2000/svg" p-id="3299" xmlns:xlink="http://www.w3.org/1999/xlink" width="200" height="200"><defs><style type="text/css"></style></defs><path d="M363.904 674.289778c2.304-22.016-13.326222-41.614222-34.787556-43.875556-21.475556-2.247111-40.846222 13.667556-43.150222 35.697778-2.318222 22.001778 13.312 41.6 34.787556 43.861333 21.475556 2.247111 40.832-13.667556 43.150222-35.683555z m28.288 2.986666c-3.953778 37.532444-37.233778 64.896-74.410667 60.984889-37.205333-3.911111-64.056889-37.589333-60.103111-75.136 3.939556-37.546667 37.205333-64.910222 74.410667-60.999111 37.176889 3.911111 64.042667 37.589333 60.103111 75.136zM516.167111 686.364444c2.318222-22.016-13.326222-41.614222-34.787555-43.875555-21.475556-2.247111-40.832 13.667556-43.150223 35.697778-2.318222 22.001778 13.312 41.6 34.787556 43.861333 21.475556 2.261333 40.832-13.667556 43.150222-35.683556z m28.288 2.986667c-3.953778 37.532444-37.219556 64.896-74.410667 60.984889-37.191111-3.911111-64.056889-37.589333-60.103111-75.136 3.939556-37.546667 37.219556-64.896 74.410667-60.999111 37.191111 3.911111 64.042667 37.603556 60.103111 75.136zM760.96 694.812444c2.304-22.016-13.326222-41.628444-34.787556-43.875555-21.475556-2.261333-40.846222 13.653333-43.150222 35.683555-2.318222 22.016 13.312 41.614222 34.787556 43.861334 21.475556 2.261333 40.817778-13.653333 43.150222-35.669334z m28.288 2.972445c-3.953778 37.546667-37.233778 64.896-74.410667 60.984889-37.205333-3.911111-64.056889-37.589333-60.103111-75.121778 3.939556-37.546667 37.205333-64.910222 74.410667-61.013333 37.176889 3.925333 64.042667 37.603556 60.103111 75.150222zM704.768 343.495111L285.582222 299.434667l-47.089778 239.701333 417.521778 43.889778 48.782222-239.530667z m-500.195556 220.686222l58.097778-295.751111 476.231111 50.062222-60.188444 295.523556-474.140445-49.834667z" p-id="3300"></path><path d="M698.908444 434.488889l2.986667-28.273778 127.644445 13.411556 42.026666 100.807111-42.24 204.700444-59.235555-6.215111 2.972444-28.302222 33.607111 3.541333 35.271111-170.88-32.156444-77.127111-110.876445-11.662222z m-31.971555 244.977778l-2.972445 28.302222-137.856-14.464 2.972445-28.302222 137.856 14.464z m-242.204445-24.789334l-3.384888 28.231111-45.027556-5.376 3.370667-28.245333 45.041777 5.390222zM277.191111 638.506667l-2.972444 28.302222-86.471111-9.102222 21.575111-109.824 27.904 5.489777-15.573334 79.303112 55.537778 5.831111z" p-id="3301"></path></svg>