<?xml version="1.0" standalone="no"?><!DOCTYPE svg PUBLIC "-//W3C//DTD SVG 1.1//EN" "http://www.w3.org/Graphics/SVG/1.1/DTD/svg11.dtd"><svg t="1558773996154" class="icon" style="" viewBox="0 0 1024 1024" version="1.1" xmlns="http://www.w3.org/2000/svg" p-id="3296" xmlns:xlink="http://www.w3.org/1999/xlink" width="200" height="200"><defs><style type="text/css"></style></defs><path d="M512 1024a512 512 0 1 1 0-1024 512 512 0 0 1 0 1024z m7.483077-770.048c-52.539077 0-93.577846 14.887385-123.352615 45.371077-29.774769 29.774769-44.662154 70.183385-44.662154 121.934769h74.436923c0-31.192615 6.301538-55.296 19.062154-72.310154 14.178462-20.558769 37.651692-30.483692 69.55323-30.483692 25.521231 0 46.08 7.089231 60.179693 21.267692 13.469538 14.178462 20.558769 33.319385 20.558769 58.131693 0 18.432-7.089231 35.446154-19.849846 51.751384l-11.972923 13.469539c-43.953231 38.990769-70.892308 68.056615-80.108308 87.906461-10.003692 18.432-14.178462 41.117538-14.178462 67.347693v12.051692h75.776V618.338462c0-17.014154 3.544615-32.610462 11.34277-46.788924 6.459077-12.760615 16.305231-25.521231 29.774769-36.864 33.319385-29.065846 53.248-47.497846 59.549538-55.296 17.801846-22.685538 27.017846-51.751385 27.017847-86.488615 0-42.535385-14.178462-76.563692-42.535385-101.376-28.356923-25.521231-65.299692-37.572923-110.592-37.572923z m-12.760615 414.72a50.176 50.176 0 0 0-36.864 14.178462 47.025231 47.025231 0 0 0-14.966154 36.155076c0 14.178462 4.962462 26.230154 14.966154 36.155077a50.806154 50.806154 0 0 0 36.864 14.887385c14.178462 0 26.860308-4.962462 36.864-14.178462a50.333538 50.333538 0 0 0 15.517538-36.864 47.025231 47.025231 0 0 0-14.808615-36.155076 50.727385 50.727385 0 0 0-37.651693-14.178462z" p-id="3297"></path></svg>