<?xml version="1.0" standalone="no"?><!DOCTYPE svg PUBLIC "-//W3C//DTD SVG 1.1//EN" "http://www.w3.org/Graphics/SVG/1.1/DTD/svg11.dtd"><svg class="icon" width="200px" height="200.00px" viewBox="0 0 1024 1024" version="1.1" xmlns="http://www.w3.org/2000/svg"><path fill="#8a8a8a" d="M512 597.333333c12.8 0 21.333333-8.533333 21.333333-21.333333L533.333333 64c0-12.8-8.533333-21.333333-21.333333-21.333333s-21.333333 8.533333-21.333333 21.333333l0 512C490.666667 588.8 499.2 597.333333 512 597.333333zM597.333333 136.533333 597.333333 136.533333c-12.8 0-21.333333 10.666667-21.333333 21.333333 0 12.8 8.533333 21.333333 21.333333 21.333333l0 0c170.666667 38.4 298.666667 192 298.666667 373.333333 0 211.2-172.8 384-384 384-211.2 0-384-172.8-384-384 0-183.466667 128-334.933333 298.666667-373.333333l0 0c12.8 0 21.333333-8.533333 21.333333-21.333333 0-12.8-8.533333-21.333333-21.333333-21.333333l0 0C232.533333 177.066667 85.333333 347.733333 85.333333 554.666667c0 234.666667 192 426.666667 426.666667 426.666667s426.666667-192 426.666667-426.666667C938.666667 347.733333 791.466667 177.066667 597.333333 136.533333z" /></svg>