<?xml version="1.0" standalone="no"?><!DOCTYPE svg PUBLIC "-//W3C//DTD SVG 1.1//EN" "http://www.w3.org/Graphics/SVG/1.1/DTD/svg11.dtd"><svg t="1558506895809" class="icon" style="" viewBox="0 0 1024 1024" version="1.1" xmlns="http://www.w3.org/2000/svg" p-id="3414" xmlns:xlink="http://www.w3.org/1999/xlink" width="200" height="200"><defs><style type="text/css"></style></defs><path d="M376.888889 618.666667m-35.555556 0a35.555556 35.555556 0 1 0 71.111111 0 35.555556 35.555556 0 1 0-71.111111 0Z" p-id="3415"></path><path d="M618.666667 618.666667m-35.555556 0a35.555556 35.555556 0 1 0 71.111111 0 35.555556 35.555556 0 1 0-71.111111 0Z" p-id="3416"></path><path d="M270.222222 241.777778h455.111111v270.222222a14.222222 14.222222 0 0 0 28.444445 0V213.333333H241.777778v298.666667a14.222222 14.222222 0 0 0 28.444444 0V241.777778z" p-id="3417"></path><path d="M611.555556 725.333333v42.666667a14.222222 14.222222 0 0 0 14.222222 14.222222h99.555555a14.222222 14.222222 0 0 0 14.222223-14.222222V568.888889a14.222222 14.222222 0 0 0-5.688889-11.377778L682.666667 519.111111V327.111111a14.222222 14.222222 0 0 0-14.222223-14.222222H327.111111a14.222222 14.222222 0 0 0-14.222222 14.222222v192l-51.2 38.4a14.222222 14.222222 0 0 0-5.688889 11.377778v199.111111a14.222222 14.222222 0 0 0 14.222222 14.222222h99.555556a14.222222 14.222222 0 0 0 14.222222-14.222222v-42.666667h227.555556z m-256 28.444445h-71.111112V576l51.2-38.4a14.222222 14.222222 0 0 0 5.688889-11.377778V341.333333h312.888889v184.888889a14.222222 14.222222 0 0 0 5.688889 11.377778l51.2 38.4V753.777778h-71.111111v-42.666667a14.222222 14.222222 0 0 0-14.222222-14.222222H369.777778a14.222222 14.222222 0 0 0-14.222222 14.222222v42.666667z" p-id="3418"></path></svg>