<?xml version="1.0" standalone="no"?><!DOCTYPE svg PUBLIC "-//W3C//DTD SVG 1.1//EN" "http://www.w3.org/Graphics/SVG/1.1/DTD/svg11.dtd"><svg t="1558507910079" class="icon" style="" viewBox="0 0 1024 1024" version="1.1" xmlns="http://www.w3.org/2000/svg" p-id="3875" xmlns:xlink="http://www.w3.org/1999/xlink" width="200" height="200"><defs><style type="text/css"></style></defs><path d="M809.244444 529.976889a28.444444 28.444444 0 0 1 15.644445 25.415111v163.669333h-81.436445v-28.444444H796.444444V555.377778l-75.747555-38.115556-57.457778-154.197333h-152.746667v327.537778h82.744889v28.444444h-111.175111v-384.426667h200.945778l60.444444 162.247112 65.777778 33.095111z" p-id="3876"></path><path d="M666.197333 796.444444c-51.2 0-92.814222-40.96-92.814222-91.605333s41.6-91.605333 92.814222-91.605333 92.814222 40.96 92.814223 91.591111c0 50.659556-41.6 91.619556-92.814223 91.619555z m0-28.444444c35.598222 0 64.369778-28.330667 64.369778-63.160889 0-34.844444-28.771556-63.160889-64.369778-63.160889-35.598222 0-64.369778 28.330667-64.369777 63.146667 0 34.844444 28.771556 63.175111 64.369777 63.175111zM667.690667 489.415111v28.444445h-107.036445V412.017778h28.444445v77.368889zM431.900444 334.648889v28.444444H246.272v-28.444444z" p-id="3877"></path><path d="M482.062222 270.222222H199.111111v-28.444444h311.395556v121.315555h-28.444445zM431.900444 428.757333v28.444445H277.703111v-28.444445zM431.900444 521.614222v28.444445h-107.036444v-28.444445z" p-id="3878"></path></svg>