<?xml version="1.0" standalone="no"?><!DOCTYPE svg PUBLIC "-//W3C//DTD SVG 1.1//EN" "http://www.w3.org/Graphics/SVG/1.1/DTD/svg11.dtd"><svg t="1558423964087" class="icon" style="" viewBox="0 0 1024 1024" version="1.1" xmlns="http://www.w3.org/2000/svg" p-id="2837" xmlns:xlink="http://www.w3.org/1999/xlink" width="200" height="200"><defs><style type="text/css"></style></defs><path d="M357.646222 370.346667v-11.420445c0-21.745778 15.473778-37.048889 37.219556-37.048889v28.444445c-6.115556 0-8.775111 2.631111-8.775111 8.604444v11.406222c0 4.707556 7.352889 10.24 18.346666 8.746667l10.666667-1.464889 4.309333 9.884445c28.871111 66.346667 52.792889 94.179556 78.933334 94.179555 36.579556 0 60.529778-25.429333 90.453333-94.179555l4.309333-9.884445 10.666667 1.464889c10.979556 1.507556 18.346667-4.039111 18.346667-8.746667v-11.406222c0-5.973333-2.673778-8.604444-8.775111-8.604444v-28.444445c21.76 0 37.219556 15.303111 37.219555 37.048889v11.406222c0 19.797333-17.393778 35.626667-39.566222 37.276445-32.540444 71.822222-63.331556 102.513778-112.64 102.513778-40.035556 0-69.532444-32.497778-101.148445-102.513778-22.186667-1.649778-39.566222-17.493333-39.566222-37.262222z" p-id="2838"></path><path d="M613.347556 321.877333v28.444445h-25.784889l-28.16-28.344889V300.373333h-45.368889a44.032 44.032 0 0 1-41.671111-29.966222h-7.978667a15.644444 15.644444 0 0 0-15.573333 15.744v35.84l-28.16 28.330667h-25.784889v-28.444445h13.937778l11.562666-11.633777V286.151111a44.088889 44.088889 0 0 1 44.017778-44.188444h34.076444v14.222222a15.644444 15.644444 0 0 0 15.573334 15.744h73.813333v38.314667l11.548445 11.633777h13.937777z" p-id="2839"></path><path d="M627.569778 336.099556h-28.444445v-79.914667h28.444445zM409.088 336.099556h-28.444444v-79.914667h28.444444zM627.569778 256.184889h-28.444445c0-7.736889-5.76-12.017778-16.568889-9.102222l-22.613333 6.101333 5.006222-22.869333c2.417778-10.993778-2.218667-16.981333-9.102222-16.981334h-103.480889c-23.367111 0-43.278222 19.541333-43.278222 42.851556h-28.444444c0-39.139556 32.753778-71.296 71.722666-71.296h103.480889c19.584 0 34.659556 13.767111 37.617778 33.166222 19.825778 2.176 34.104889 17.450667 34.104889 38.129778zM498.346667 881.123556c-103.665778 0-189.44-55.879111-189.44-128.369778 0-72.504889 85.774222-128.384 189.44-128.384 103.68 0 189.44 55.893333 189.44 128.384 0 72.490667-85.76 128.369778-189.44 128.369778z m0-28.444445c89.884444 0 160.995556-46.336 160.995555-99.925333 0-53.603556-71.111111-99.939556-160.995555-99.939556-89.856 0-160.995556 46.336-160.995556 99.939556 0 53.589333 71.139556 99.925333 160.995556 99.925333z" p-id="2840"></path><path d="M791.096889 563.655111c24.96 32.042667 26.453333 60.984889 0.142222 79.843556-18.147556 12.999111-39.822222 9.856-67.697778-4.920889-10.140444-5.361778-21.020444-12.145778-35.896889-22.115556-3.157333-2.133333-30.734222-20.906667-39.296-26.581333-58.126222-38.456889-100.693333-56.917333-145.123555-56.917333-129.592889 0-233.002667 70.314667-233.002667 153.884444 0 48.668444 35.228444 94.449778 94.791111 123.662222l-12.529777 25.543111C283.975111 802.446222 241.777778 747.605333 241.777778 686.862222c0-102.144 117.959111-182.343111 261.447111-182.343111 51.512889 0 98.389333 20.337778 160.824889 61.639111 8.746667 5.802667 36.423111 24.661333 39.424 26.666667 14.136889 9.486222 24.305778 15.815111 33.365333 20.622222 19.342222 10.24 30.862222 11.904 37.831111 6.926222 10.737778-7.708444 10.183111-18.446222-6.001778-39.224889-19.413333-24.903111-58.524444-57.031111-117.048888-95.786666l-8.419556-5.575111 40.917333-160.668445 27.562667 7.011556-35.939556 141.141333c56.277333 37.831111 94.634667 69.788444 115.356445 96.384z" p-id="2841"></path></svg>